<mxfile host="app.diagrams.net" agent="Mozilla/5.0 (Windows NT 10.0; Win64; x64) AppleWebKit/537.36 (KHTML, like Gecko) Chrome/134.0.0.0 Safari/537.36" version="26.0.7">
  <diagram name="Seite-1" id="TU9W4s5XV5Jqz8ymjJ4V">
    <mxGraphModel dx="2390" dy="1230" grid="1" gridSize="10" guides="1" tooltips="1" connect="1" arrows="1" fold="1" page="1" pageScale="1" pageWidth="2339" pageHeight="3300" math="0" shadow="0">
      <root>
        <mxCell id="0" />
        <mxCell id="1" parent="0" />
        <mxCell id="pl0yGp6066iL1tmnYxi--1" value="A" style="swimlane;fontStyle=0;childLayout=stackLayout;horizontal=1;startSize=30;horizontalStack=0;resizeParent=1;resizeParentMax=0;resizeLast=0;collapsible=1;marginBottom=0;whiteSpace=wrap;html=1;" parent="1" vertex="1">
          <mxGeometry x="200" y="359" width="140" height="195" as="geometry" />
        </mxCell>
        <mxCell id="pl0yGp6066iL1tmnYxi--46" value="TSN Switch" style="strokeWidth=1;html=1;shadow=0;dashed=0;shape=mxgraph.ios.iOnOffButton;mainText=;strokeColor=#444444;fontSize=9;fontColor=#ffffff;spacingRight=14;buttonState=on;sketch=0;" parent="pl0yGp6066iL1tmnYxi--1" vertex="1">
          <mxGeometry y="30" width="140" height="15" as="geometry" />
        </mxCell>
        <mxCell id="pl0yGp6066iL1tmnYxi--2" value="cost: 0" style="text;strokeColor=none;fillColor=none;align=left;verticalAlign=middle;spacingLeft=4;spacingRight=4;overflow=hidden;points=[[0,0.5],[1,0.5]];portConstraint=eastwest;rotatable=0;whiteSpace=wrap;html=1;" parent="pl0yGp6066iL1tmnYxi--1" vertex="1">
          <mxGeometry y="45" width="140" height="30" as="geometry" />
        </mxCell>
        <mxCell id="pl0yGp6066iL1tmnYxi--3" value="path" style="text;strokeColor=none;fillColor=none;align=left;verticalAlign=middle;spacingLeft=4;spacingRight=4;overflow=hidden;points=[[0,0.5],[1,0.5]];portConstraint=eastwest;rotatable=0;whiteSpace=wrap;html=1;" parent="pl0yGp6066iL1tmnYxi--1" vertex="1">
          <mxGeometry y="75" width="140" height="30" as="geometry" />
        </mxCell>
        <mxCell id="pl0yGp6066iL1tmnYxi--4" value="egressCost: 11" style="text;strokeColor=none;fillColor=none;align=left;verticalAlign=middle;spacingLeft=4;spacingRight=4;overflow=hidden;points=[[0,0.5],[1,0.5]];portConstraint=eastwest;rotatable=0;whiteSpace=wrap;html=1;" parent="pl0yGp6066iL1tmnYxi--1" vertex="1">
          <mxGeometry y="105" width="140" height="30" as="geometry" />
        </mxCell>
        <mxCell id="pl0yGp6066iL1tmnYxi--5" value="ingressCost: 101" style="text;fillColor=#f5f5f5;align=left;verticalAlign=middle;spacingLeft=4;spacingRight=4;overflow=hidden;points=[[0,0.5],[1,0.5]];portConstraint=eastwest;rotatable=0;whiteSpace=wrap;html=1;fontColor=#333333;strokeColor=#666666;" parent="pl0yGp6066iL1tmnYxi--1" vertex="1">
          <mxGeometry y="135" width="140" height="30" as="geometry" />
        </mxCell>
        <mxCell id="pl0yGp6066iL1tmnYxi--6" value="residenceCost: 1001" style="text;strokeColor=none;fillColor=none;align=left;verticalAlign=middle;spacingLeft=4;spacingRight=4;overflow=hidden;points=[[0,0.5],[1,0.5]];portConstraint=eastwest;rotatable=0;whiteSpace=wrap;html=1;" parent="pl0yGp6066iL1tmnYxi--1" vertex="1">
          <mxGeometry y="165" width="140" height="30" as="geometry" />
        </mxCell>
        <mxCell id="pl0yGp6066iL1tmnYxi--7" value="B" style="swimlane;fontStyle=0;childLayout=stackLayout;horizontal=1;startSize=30;horizontalStack=0;resizeParent=1;resizeParentMax=0;resizeLast=0;collapsible=1;marginBottom=0;whiteSpace=wrap;html=1;" parent="1" vertex="1">
          <mxGeometry x="440" y="359" width="140" height="195" as="geometry" />
        </mxCell>
        <mxCell id="pl0yGp6066iL1tmnYxi--47" value="TSN Switch" style="strokeWidth=1;html=1;shadow=0;dashed=0;shape=mxgraph.ios.iOnOffButton;mainText=;strokeColor=#444444;fontSize=9;fontColor=#ffffff;spacingRight=14;buttonState=on;sketch=0;" parent="pl0yGp6066iL1tmnYxi--7" vertex="1">
          <mxGeometry y="30" width="140" height="15" as="geometry" />
        </mxCell>
        <mxCell id="6noG_g_EewDLC4juEWvF-1" value="cost: 0" style="text;strokeColor=none;fillColor=none;align=left;verticalAlign=middle;spacingLeft=4;spacingRight=4;overflow=hidden;points=[[0,0.5],[1,0.5]];portConstraint=eastwest;rotatable=0;whiteSpace=wrap;html=1;" parent="pl0yGp6066iL1tmnYxi--7" vertex="1">
          <mxGeometry y="45" width="140" height="30" as="geometry" />
        </mxCell>
        <mxCell id="6noG_g_EewDLC4juEWvF-2" value="path" style="text;strokeColor=none;fillColor=none;align=left;verticalAlign=middle;spacingLeft=4;spacingRight=4;overflow=hidden;points=[[0,0.5],[1,0.5]];portConstraint=eastwest;rotatable=0;whiteSpace=wrap;html=1;" parent="pl0yGp6066iL1tmnYxi--7" vertex="1">
          <mxGeometry y="75" width="140" height="30" as="geometry" />
        </mxCell>
        <mxCell id="6noG_g_EewDLC4juEWvF-4" value="egressCost: 11" style="text;strokeColor=none;fillColor=none;align=left;verticalAlign=middle;spacingLeft=4;spacingRight=4;overflow=hidden;points=[[0,0.5],[1,0.5]];portConstraint=eastwest;rotatable=0;whiteSpace=wrap;html=1;" parent="pl0yGp6066iL1tmnYxi--7" vertex="1">
          <mxGeometry y="105" width="140" height="30" as="geometry" />
        </mxCell>
        <mxCell id="6noG_g_EewDLC4juEWvF-3" value="ingressCost: 101" style="text;strokeColor=none;fillColor=none;align=left;verticalAlign=middle;spacingLeft=4;spacingRight=4;overflow=hidden;points=[[0,0.5],[1,0.5]];portConstraint=eastwest;rotatable=0;whiteSpace=wrap;html=1;" parent="pl0yGp6066iL1tmnYxi--7" vertex="1">
          <mxGeometry y="135" width="140" height="30" as="geometry" />
        </mxCell>
        <mxCell id="6noG_g_EewDLC4juEWvF-5" value="residenceCost: 1001" style="text;strokeColor=none;fillColor=none;align=left;verticalAlign=middle;spacingLeft=4;spacingRight=4;overflow=hidden;points=[[0,0.5],[1,0.5]];portConstraint=eastwest;rotatable=0;whiteSpace=wrap;html=1;" parent="pl0yGp6066iL1tmnYxi--7" vertex="1">
          <mxGeometry y="165" width="140" height="30" as="geometry" />
        </mxCell>
        <mxCell id="6noG_g_EewDLC4juEWvF-114" style="edgeStyle=orthogonalEdgeStyle;rounded=0;orthogonalLoop=1;jettySize=auto;html=1;exitX=0.5;exitY=0;exitDx=0;exitDy=0;" parent="1" source="pl0yGp6066iL1tmnYxi--13" target="pl0yGp6066iL1tmnYxi--30" edge="1">
          <mxGeometry relative="1" as="geometry" />
        </mxCell>
        <mxCell id="pl0yGp6066iL1tmnYxi--13" value="C" style="swimlane;fontStyle=0;childLayout=stackLayout;horizontal=1;startSize=30;horizontalStack=0;resizeParent=1;resizeParentMax=0;resizeLast=0;collapsible=1;marginBottom=0;whiteSpace=wrap;html=1;" parent="1" vertex="1">
          <mxGeometry x="680" y="359" width="140" height="195" as="geometry" />
        </mxCell>
        <mxCell id="pl0yGp6066iL1tmnYxi--48" value="TSN Switch" style="strokeWidth=1;html=1;shadow=0;dashed=0;shape=mxgraph.ios.iOnOffButton;mainText=;strokeColor=#444444;fontSize=9;fontColor=#ffffff;spacingRight=14;buttonState=on;sketch=0;" parent="pl0yGp6066iL1tmnYxi--13" vertex="1">
          <mxGeometry y="30" width="140" height="15" as="geometry" />
        </mxCell>
        <mxCell id="pl0yGp6066iL1tmnYxi--14" value="cost: 0" style="text;strokeColor=none;fillColor=none;align=left;verticalAlign=middle;spacingLeft=4;spacingRight=4;overflow=hidden;points=[[0,0.5],[1,0.5]];portConstraint=eastwest;rotatable=0;whiteSpace=wrap;html=1;" parent="pl0yGp6066iL1tmnYxi--13" vertex="1">
          <mxGeometry y="45" width="140" height="30" as="geometry" />
        </mxCell>
        <mxCell id="pl0yGp6066iL1tmnYxi--15" value="path" style="text;strokeColor=none;fillColor=none;align=left;verticalAlign=middle;spacingLeft=4;spacingRight=4;overflow=hidden;points=[[0,0.5],[1,0.5]];portConstraint=eastwest;rotatable=0;whiteSpace=wrap;html=1;" parent="pl0yGp6066iL1tmnYxi--13" vertex="1">
          <mxGeometry y="75" width="140" height="30" as="geometry" />
        </mxCell>
        <mxCell id="pl0yGp6066iL1tmnYxi--16" value="egressCost: 11" style="text;strokeColor=#666666;fillColor=#f5f5f5;align=left;verticalAlign=middle;spacingLeft=4;spacingRight=4;overflow=hidden;points=[[0,0.5],[1,0.5]];portConstraint=eastwest;rotatable=0;whiteSpace=wrap;html=1;fontColor=#333333;" parent="pl0yGp6066iL1tmnYxi--13" vertex="1">
          <mxGeometry y="105" width="140" height="30" as="geometry" />
        </mxCell>
        <mxCell id="pl0yGp6066iL1tmnYxi--17" value="ingressCost: 101" style="text;strokeColor=none;fillColor=none;align=left;verticalAlign=middle;spacingLeft=4;spacingRight=4;overflow=hidden;points=[[0,0.5],[1,0.5]];portConstraint=eastwest;rotatable=0;whiteSpace=wrap;html=1;" parent="pl0yGp6066iL1tmnYxi--13" vertex="1">
          <mxGeometry y="135" width="140" height="30" as="geometry" />
        </mxCell>
        <mxCell id="pl0yGp6066iL1tmnYxi--18" value="residenceCost: 1001" style="text;strokeColor=none;fillColor=none;align=left;verticalAlign=middle;spacingLeft=4;spacingRight=4;overflow=hidden;points=[[0,0.5],[1,0.5]];portConstraint=eastwest;rotatable=0;whiteSpace=wrap;html=1;" parent="pl0yGp6066iL1tmnYxi--13" vertex="1">
          <mxGeometry y="165" width="140" height="30" as="geometry" />
        </mxCell>
        <mxCell id="pl0yGp6066iL1tmnYxi--19" style="edgeStyle=orthogonalEdgeStyle;rounded=0;orthogonalLoop=1;jettySize=auto;html=1;exitX=1;exitY=0.5;exitDx=0;exitDy=0;entryX=0;entryY=0.5;entryDx=0;entryDy=0;" parent="1" source="pl0yGp6066iL1tmnYxi--3" target="6noG_g_EewDLC4juEWvF-2" edge="1">
          <mxGeometry relative="1" as="geometry">
            <mxPoint x="440" y="569" as="targetPoint" />
          </mxGeometry>
        </mxCell>
        <mxCell id="pl0yGp6066iL1tmnYxi--20" style="edgeStyle=orthogonalEdgeStyle;rounded=0;orthogonalLoop=1;jettySize=auto;html=1;entryX=0;entryY=0.5;entryDx=0;entryDy=0;" parent="1" target="pl0yGp6066iL1tmnYxi--15" edge="1">
          <mxGeometry relative="1" as="geometry">
            <mxPoint x="581" y="449" as="sourcePoint" />
          </mxGeometry>
        </mxCell>
        <mxCell id="pl0yGp6066iL1tmnYxi--21" value="link 1" style="text;html=1;align=center;verticalAlign=middle;resizable=0;points=[];autosize=1;strokeColor=none;fillColor=none;" parent="1" vertex="1">
          <mxGeometry x="370" y="419" width="50" height="30" as="geometry" />
        </mxCell>
        <mxCell id="pl0yGp6066iL1tmnYxi--22" value="link 2" style="text;html=1;align=center;verticalAlign=middle;resizable=0;points=[];autosize=1;strokeColor=none;fillColor=none;" parent="1" vertex="1">
          <mxGeometry x="610" y="419" width="50" height="30" as="geometry" />
        </mxCell>
        <mxCell id="6noG_g_EewDLC4juEWvF-8" style="edgeStyle=orthogonalEdgeStyle;rounded=0;orthogonalLoop=1;jettySize=auto;html=1;entryX=0.5;entryY=0;entryDx=0;entryDy=0;" parent="1" source="pl0yGp6066iL1tmnYxi--23" target="pl0yGp6066iL1tmnYxi--1" edge="1">
          <mxGeometry relative="1" as="geometry" />
        </mxCell>
        <mxCell id="pl0yGp6066iL1tmnYxi--23" value="Publisher on Device A" style="swimlane;fontStyle=0;childLayout=stackLayout;horizontal=1;startSize=30;horizontalStack=0;resizeParent=1;resizeParentMax=0;resizeLast=0;collapsible=1;marginBottom=0;whiteSpace=wrap;html=1;" parent="1" vertex="1">
          <mxGeometry x="200" y="40" width="140" height="230" as="geometry" />
        </mxCell>
        <mxCell id="pl0yGp6066iL1tmnYxi--29" value="500" style="ellipse;whiteSpace=wrap;html=1;aspect=fixed;" parent="pl0yGp6066iL1tmnYxi--23" vertex="1">
          <mxGeometry y="30" width="140" height="80" as="geometry" />
        </mxCell>
        <mxCell id="pl0yGp6066iL1tmnYxi--24" value="priority: 4" style="text;strokeColor=none;fillColor=none;align=left;verticalAlign=middle;spacingLeft=4;spacingRight=4;overflow=hidden;points=[[0,0.5],[1,0.5]];portConstraint=eastwest;rotatable=0;whiteSpace=wrap;html=1;" parent="pl0yGp6066iL1tmnYxi--23" vertex="1">
          <mxGeometry y="110" width="140" height="30" as="geometry" />
        </mxCell>
        <mxCell id="pl0yGp6066iL1tmnYxi--25" value="publishingOffset: 400" style="text;strokeColor=none;fillColor=none;align=left;verticalAlign=middle;spacingLeft=4;spacingRight=4;overflow=hidden;points=[[0,0.5],[1,0.5]];portConstraint=eastwest;rotatable=0;whiteSpace=wrap;html=1;" parent="pl0yGp6066iL1tmnYxi--23" vertex="1">
          <mxGeometry y="140" width="140" height="30" as="geometry" />
        </mxCell>
        <mxCell id="pl0yGp6066iL1tmnYxi--26" value="receivingOffset: 5000" style="text;strokeColor=none;fillColor=none;align=left;verticalAlign=middle;spacingLeft=4;spacingRight=4;overflow=hidden;points=[[0,0.5],[1,0.5]];portConstraint=eastwest;rotatable=0;whiteSpace=wrap;html=1;" parent="pl0yGp6066iL1tmnYxi--23" vertex="1">
          <mxGeometry y="170" width="140" height="30" as="geometry" />
        </mxCell>
        <mxCell id="pl0yGp6066iL1tmnYxi--27" value="streamCost: 10016" style="text;strokeColor=none;fillColor=none;align=left;verticalAlign=middle;spacingLeft=4;spacingRight=4;overflow=hidden;points=[[0,0.5],[1,0.5]];portConstraint=eastwest;rotatable=0;whiteSpace=wrap;html=1;" parent="pl0yGp6066iL1tmnYxi--23" vertex="1">
          <mxGeometry y="200" width="140" height="30" as="geometry" />
        </mxCell>
        <mxCell id="pl0yGp6066iL1tmnYxi--30" value="Subscriber on Device C" style="swimlane;fontStyle=0;childLayout=stackLayout;horizontal=1;startSize=30;horizontalStack=0;resizeParent=1;resizeParentMax=0;resizeLast=0;collapsible=1;marginBottom=0;whiteSpace=wrap;html=1;" parent="1" vertex="1">
          <mxGeometry x="680" y="40" width="140" height="230" as="geometry" />
        </mxCell>
        <mxCell id="pl0yGp6066iL1tmnYxi--31" value="502" style="ellipse;whiteSpace=wrap;html=1;aspect=fixed;" parent="pl0yGp6066iL1tmnYxi--30" vertex="1">
          <mxGeometry y="30" width="140" height="80" as="geometry" />
        </mxCell>
        <mxCell id="pl0yGp6066iL1tmnYxi--37" value="priority: 4" style="text;strokeColor=none;fillColor=none;align=left;verticalAlign=middle;spacingLeft=4;spacingRight=4;overflow=hidden;points=[[0,0.5],[1,0.5]];portConstraint=eastwest;rotatable=0;whiteSpace=wrap;html=1;" parent="pl0yGp6066iL1tmnYxi--30" vertex="1">
          <mxGeometry y="110" width="140" height="30" as="geometry" />
        </mxCell>
        <mxCell id="pl0yGp6066iL1tmnYxi--38" value="publishingOffset: 100" style="text;strokeColor=none;fillColor=none;align=left;verticalAlign=middle;spacingLeft=4;spacingRight=4;overflow=hidden;points=[[0,0.5],[1,0.5]];portConstraint=eastwest;rotatable=0;whiteSpace=wrap;html=1;" parent="pl0yGp6066iL1tmnYxi--30" vertex="1">
          <mxGeometry y="140" width="140" height="30" as="geometry" />
        </mxCell>
        <mxCell id="pl0yGp6066iL1tmnYxi--39" value="receivingOffset: 5500" style="text;strokeColor=none;fillColor=none;align=left;verticalAlign=middle;spacingLeft=4;spacingRight=4;overflow=hidden;points=[[0,0.5],[1,0.5]];portConstraint=eastwest;rotatable=0;whiteSpace=wrap;html=1;" parent="pl0yGp6066iL1tmnYxi--30" vertex="1">
          <mxGeometry y="170" width="140" height="30" as="geometry" />
        </mxCell>
        <mxCell id="pl0yGp6066iL1tmnYxi--40" value="streamCost: 9984" style="text;strokeColor=none;fillColor=none;align=left;verticalAlign=middle;spacingLeft=4;spacingRight=4;overflow=hidden;points=[[0,0.5],[1,0.5]];portConstraint=eastwest;rotatable=0;whiteSpace=wrap;html=1;" parent="pl0yGp6066iL1tmnYxi--30" vertex="1">
          <mxGeometry y="200" width="140" height="30" as="geometry" />
        </mxCell>
        <mxCell id="6noG_g_EewDLC4juEWvF-6" style="edgeStyle=orthogonalEdgeStyle;rounded=0;orthogonalLoop=1;jettySize=auto;html=1;exitX=1;exitY=0.5;exitDx=0;exitDy=0;" parent="1" source="pl0yGp6066iL1tmnYxi--29" target="pl0yGp6066iL1tmnYxi--31" edge="1">
          <mxGeometry relative="1" as="geometry" />
        </mxCell>
        <mxCell id="6noG_g_EewDLC4juEWvF-7" value="Pubsub1" style="text;html=1;align=center;verticalAlign=middle;resizable=0;points=[];autosize=1;strokeColor=none;fillColor=none;" parent="1" vertex="1">
          <mxGeometry x="475" y="80" width="70" height="30" as="geometry" />
        </mxCell>
        <mxCell id="6noG_g_EewDLC4juEWvF-11" value="A: talker /&amp;nbsp;&lt;div&gt;data publisher&lt;/div&gt;" style="swimlane;fontStyle=0;childLayout=stackLayout;horizontal=1;startSize=30;horizontalStack=0;resizeParent=1;resizeParentMax=0;resizeLast=0;collapsible=1;marginBottom=0;whiteSpace=wrap;html=1;" parent="1" vertex="1">
          <mxGeometry x="1099.94" y="580.44" width="140" height="195" as="geometry" />
        </mxCell>
        <mxCell id="6noG_g_EewDLC4juEWvF-12" value="TSN Switch" style="strokeWidth=1;html=1;shadow=0;dashed=0;shape=mxgraph.ios.iOnOffButton;mainText=;strokeColor=#444444;fontSize=9;fontColor=#ffffff;spacingRight=14;buttonState=on;sketch=0;" parent="6noG_g_EewDLC4juEWvF-11" vertex="1">
          <mxGeometry y="30" width="140" height="15" as="geometry" />
        </mxCell>
        <mxCell id="6noG_g_EewDLC4juEWvF-13" value="cost: 0" style="text;strokeColor=none;fillColor=none;align=left;verticalAlign=middle;spacingLeft=4;spacingRight=4;overflow=hidden;points=[[0,0.5],[1,0.5]];portConstraint=eastwest;rotatable=0;whiteSpace=wrap;html=1;" parent="6noG_g_EewDLC4juEWvF-11" vertex="1">
          <mxGeometry y="45" width="140" height="30" as="geometry" />
        </mxCell>
        <mxCell id="6noG_g_EewDLC4juEWvF-14" value="path:&lt;span style=&quot;color: rgba(0, 0, 0, 0); font-family: monospace; font-size: 0px; text-wrap: nowrap;&quot;&gt;%3CmxGraphModel%3E%3Croot%3E%3CmxCell%20id%3D%220%22%2F%3E%3CmxCell%20id%3D%221%22%20parent%3D%220%22%2F%3E%3CmxCell%20id%3D%222%22%20value%3D%22%22%20style%3D%22html%3D1%3BverticalLabelPosition%3Dbottom%3BlabelBackgroundColor%3D%23ffffff%3BverticalAlign%3Dtop%3Bshadow%3D0%3Bdashed%3D0%3BstrokeWidth%3D1%3Bshape%3Dmxgraph.ios7ui.onOffButton%3BbuttonState%3Don%3BstrokeColor%3D%2338D145%3BstrokeColor2%3D%23aaaaaa%3BfillColor%3D%2338D145%3BfillColor2%3D%23ffffff%3B%22%20vertex%3D%221%22%20parent%3D%221%22%3E%3CmxGeometry%20x%3D%221220%22%20y%3D%22775%22%20width%3D%22140%22%20height%3D%2215%22%20as%3D%22geometry%22%2F%3E%3C%2FmxCell%3E%3C%2Froot%3E%3C%2FmxGraphModel%3E&lt;/span&gt;" style="text;strokeColor=none;fillColor=none;align=left;verticalAlign=middle;spacingLeft=4;spacingRight=4;overflow=hidden;points=[[0,0.5],[1,0.5]];portConstraint=eastwest;rotatable=0;whiteSpace=wrap;html=1;" parent="6noG_g_EewDLC4juEWvF-11" vertex="1">
          <mxGeometry y="75" width="140" height="30" as="geometry" />
        </mxCell>
        <mxCell id="6noG_g_EewDLC4juEWvF-15" value="egressCost: 11" style="text;strokeColor=none;fillColor=none;align=left;verticalAlign=middle;spacingLeft=4;spacingRight=4;overflow=hidden;points=[[0,0.5],[1,0.5]];portConstraint=eastwest;rotatable=0;whiteSpace=wrap;html=1;" parent="6noG_g_EewDLC4juEWvF-11" vertex="1">
          <mxGeometry y="105" width="140" height="30" as="geometry" />
        </mxCell>
        <mxCell id="6noG_g_EewDLC4juEWvF-16" value="ingressCost: 101" style="text;strokeColor=#666666;fillColor=#f5f5f5;align=left;verticalAlign=middle;spacingLeft=4;spacingRight=4;overflow=hidden;points=[[0,0.5],[1,0.5]];portConstraint=eastwest;rotatable=0;whiteSpace=wrap;html=1;fontColor=#333333;" parent="6noG_g_EewDLC4juEWvF-11" vertex="1">
          <mxGeometry y="135" width="140" height="30" as="geometry" />
        </mxCell>
        <mxCell id="6noG_g_EewDLC4juEWvF-17" value="residenceCost: 1001" style="text;strokeColor=none;fillColor=none;align=left;verticalAlign=middle;spacingLeft=4;spacingRight=4;overflow=hidden;points=[[0,0.5],[1,0.5]];portConstraint=eastwest;rotatable=0;whiteSpace=wrap;html=1;" parent="6noG_g_EewDLC4juEWvF-11" vertex="1">
          <mxGeometry y="165" width="140" height="30" as="geometry" />
        </mxCell>
        <mxCell id="6noG_g_EewDLC4juEWvF-73" style="edgeStyle=orthogonalEdgeStyle;rounded=0;orthogonalLoop=1;jettySize=auto;html=1;exitX=0.5;exitY=0;exitDx=0;exitDy=0;" parent="1" source="6noG_g_EewDLC4juEWvF-18" target="6noG_g_EewDLC4juEWvF-67" edge="1">
          <mxGeometry relative="1" as="geometry" />
        </mxCell>
        <mxCell id="6noG_g_EewDLC4juEWvF-18" value="B: listener /&amp;nbsp;&lt;div&gt;data subscriber&lt;/div&gt;" style="swimlane;fontStyle=0;childLayout=stackLayout;horizontal=1;startSize=30;horizontalStack=0;resizeParent=1;resizeParentMax=0;resizeLast=0;collapsible=1;marginBottom=0;whiteSpace=wrap;html=1;" parent="1" vertex="1">
          <mxGeometry x="1339.94" y="580.44" width="140" height="195" as="geometry" />
        </mxCell>
        <mxCell id="6noG_g_EewDLC4juEWvF-19" value="TSN Switch" style="strokeWidth=1;html=1;shadow=0;dashed=0;shape=mxgraph.ios.iOnOffButton;mainText=;strokeColor=#444444;fontSize=9;fontColor=#ffffff;spacingRight=14;buttonState=on;sketch=0;" parent="6noG_g_EewDLC4juEWvF-18" vertex="1">
          <mxGeometry y="30" width="140" height="15" as="geometry" />
        </mxCell>
        <mxCell id="6noG_g_EewDLC4juEWvF-20" value="cost: 0" style="text;strokeColor=none;fillColor=none;align=left;verticalAlign=middle;spacingLeft=4;spacingRight=4;overflow=hidden;points=[[0,0.5],[1,0.5]];portConstraint=eastwest;rotatable=0;whiteSpace=wrap;html=1;" parent="6noG_g_EewDLC4juEWvF-18" vertex="1">
          <mxGeometry y="45" width="140" height="30" as="geometry" />
        </mxCell>
        <mxCell id="6noG_g_EewDLC4juEWvF-21" value="path" style="text;strokeColor=none;fillColor=none;align=left;verticalAlign=middle;spacingLeft=4;spacingRight=4;overflow=hidden;points=[[0,0.5],[1,0.5]];portConstraint=eastwest;rotatable=0;whiteSpace=wrap;html=1;" parent="6noG_g_EewDLC4juEWvF-18" vertex="1">
          <mxGeometry y="75" width="140" height="30" as="geometry" />
        </mxCell>
        <mxCell id="6noG_g_EewDLC4juEWvF-22" value="egressCost: 11" style="text;strokeColor=#666666;fillColor=#f5f5f5;align=left;verticalAlign=middle;spacingLeft=4;spacingRight=4;overflow=hidden;points=[[0,0.5],[1,0.5]];portConstraint=eastwest;rotatable=0;whiteSpace=wrap;html=1;fontColor=#333333;" parent="6noG_g_EewDLC4juEWvF-18" vertex="1">
          <mxGeometry y="105" width="140" height="30" as="geometry" />
        </mxCell>
        <mxCell id="6noG_g_EewDLC4juEWvF-23" value="ingressCost: 101" style="text;strokeColor=none;fillColor=none;align=left;verticalAlign=middle;spacingLeft=4;spacingRight=4;overflow=hidden;points=[[0,0.5],[1,0.5]];portConstraint=eastwest;rotatable=0;whiteSpace=wrap;html=1;" parent="6noG_g_EewDLC4juEWvF-18" vertex="1">
          <mxGeometry y="135" width="140" height="30" as="geometry" />
        </mxCell>
        <mxCell id="6noG_g_EewDLC4juEWvF-24" value="residenceCost: 1001" style="text;strokeColor=none;fillColor=none;align=left;verticalAlign=middle;spacingLeft=4;spacingRight=4;overflow=hidden;points=[[0,0.5],[1,0.5]];portConstraint=eastwest;rotatable=0;whiteSpace=wrap;html=1;" parent="6noG_g_EewDLC4juEWvF-18" vertex="1">
          <mxGeometry y="165" width="140" height="30" as="geometry" />
        </mxCell>
        <mxCell id="6noG_g_EewDLC4juEWvF-26" value="C" style="swimlane;fontStyle=0;childLayout=stackLayout;horizontal=1;startSize=30;horizontalStack=0;resizeParent=1;resizeParentMax=0;resizeLast=0;collapsible=1;marginBottom=0;whiteSpace=wrap;html=1;" parent="1" vertex="1">
          <mxGeometry x="1579.94" y="580.44" width="140" height="195" as="geometry" />
        </mxCell>
        <mxCell id="6noG_g_EewDLC4juEWvF-27" value="TSN Switch" style="strokeWidth=1;html=1;shadow=0;dashed=0;shape=mxgraph.ios.iOnOffButton;mainText=;strokeColor=#444444;fontSize=9;fontColor=#ffffff;spacingRight=14;buttonState=on;sketch=0;" parent="6noG_g_EewDLC4juEWvF-26" vertex="1">
          <mxGeometry y="30" width="140" height="15" as="geometry" />
        </mxCell>
        <mxCell id="6noG_g_EewDLC4juEWvF-28" value="cost: 0" style="text;strokeColor=none;fillColor=none;align=left;verticalAlign=middle;spacingLeft=4;spacingRight=4;overflow=hidden;points=[[0,0.5],[1,0.5]];portConstraint=eastwest;rotatable=0;whiteSpace=wrap;html=1;" parent="6noG_g_EewDLC4juEWvF-26" vertex="1">
          <mxGeometry y="45" width="140" height="30" as="geometry" />
        </mxCell>
        <mxCell id="6noG_g_EewDLC4juEWvF-29" value="path" style="text;strokeColor=none;fillColor=none;align=left;verticalAlign=middle;spacingLeft=4;spacingRight=4;overflow=hidden;points=[[0,0.5],[1,0.5]];portConstraint=eastwest;rotatable=0;whiteSpace=wrap;html=1;" parent="6noG_g_EewDLC4juEWvF-26" vertex="1">
          <mxGeometry y="75" width="140" height="30" as="geometry" />
        </mxCell>
        <mxCell id="6noG_g_EewDLC4juEWvF-30" value="egressCost: 11" style="text;strokeColor=none;fillColor=none;align=left;verticalAlign=middle;spacingLeft=4;spacingRight=4;overflow=hidden;points=[[0,0.5],[1,0.5]];portConstraint=eastwest;rotatable=0;whiteSpace=wrap;html=1;" parent="6noG_g_EewDLC4juEWvF-26" vertex="1">
          <mxGeometry y="105" width="140" height="30" as="geometry" />
        </mxCell>
        <mxCell id="6noG_g_EewDLC4juEWvF-31" value="ingressCost: 101" style="text;strokeColor=none;fillColor=none;align=left;verticalAlign=middle;spacingLeft=4;spacingRight=4;overflow=hidden;points=[[0,0.5],[1,0.5]];portConstraint=eastwest;rotatable=0;whiteSpace=wrap;html=1;" parent="6noG_g_EewDLC4juEWvF-26" vertex="1">
          <mxGeometry y="135" width="140" height="30" as="geometry" />
        </mxCell>
        <mxCell id="6noG_g_EewDLC4juEWvF-32" value="residenceCost: 1001" style="text;strokeColor=none;fillColor=none;align=left;verticalAlign=middle;spacingLeft=4;spacingRight=4;overflow=hidden;points=[[0,0.5],[1,0.5]];portConstraint=eastwest;rotatable=0;whiteSpace=wrap;html=1;" parent="6noG_g_EewDLC4juEWvF-26" vertex="1">
          <mxGeometry y="165" width="140" height="30" as="geometry" />
        </mxCell>
        <mxCell id="6noG_g_EewDLC4juEWvF-33" style="edgeStyle=orthogonalEdgeStyle;rounded=0;orthogonalLoop=1;jettySize=auto;html=1;exitX=1;exitY=0.5;exitDx=0;exitDy=0;entryX=0;entryY=0.5;entryDx=0;entryDy=0;" parent="1" source="6noG_g_EewDLC4juEWvF-14" target="6noG_g_EewDLC4juEWvF-21" edge="1">
          <mxGeometry relative="1" as="geometry">
            <mxPoint x="1339.94" y="790.44" as="targetPoint" />
          </mxGeometry>
        </mxCell>
        <mxCell id="6noG_g_EewDLC4juEWvF-34" style="edgeStyle=orthogonalEdgeStyle;rounded=0;orthogonalLoop=1;jettySize=auto;html=1;entryX=0;entryY=0.5;entryDx=0;entryDy=0;" parent="1" target="6noG_g_EewDLC4juEWvF-29" edge="1">
          <mxGeometry relative="1" as="geometry">
            <mxPoint x="1480.94" y="670.44" as="sourcePoint" />
          </mxGeometry>
        </mxCell>
        <mxCell id="6noG_g_EewDLC4juEWvF-35" value="link 1" style="text;html=1;align=center;verticalAlign=middle;resizable=0;points=[];autosize=1;strokeColor=none;fillColor=none;" parent="1" vertex="1">
          <mxGeometry x="1269.94" y="640.44" width="50" height="30" as="geometry" />
        </mxCell>
        <mxCell id="6noG_g_EewDLC4juEWvF-36" value="link 2" style="text;html=1;align=center;verticalAlign=middle;resizable=0;points=[];autosize=1;strokeColor=none;fillColor=none;" parent="1" vertex="1">
          <mxGeometry x="1509.94" y="640.44" width="50" height="30" as="geometry" />
        </mxCell>
        <mxCell id="6noG_g_EewDLC4juEWvF-37" style="edgeStyle=orthogonalEdgeStyle;rounded=0;orthogonalLoop=1;jettySize=auto;html=1;entryX=0.5;entryY=0;entryDx=0;entryDy=0;" parent="1" source="6noG_g_EewDLC4juEWvF-38" target="6noG_g_EewDLC4juEWvF-11" edge="1">
          <mxGeometry relative="1" as="geometry" />
        </mxCell>
        <mxCell id="6noG_g_EewDLC4juEWvF-38" value="Publisher on Device A" style="swimlane;fontStyle=0;childLayout=stackLayout;horizontal=1;startSize=30;horizontalStack=0;resizeParent=1;resizeParentMax=0;resizeLast=0;collapsible=1;marginBottom=0;whiteSpace=wrap;html=1;" parent="1" vertex="1">
          <mxGeometry x="1099.94" y="69.44" width="140" height="230" as="geometry" />
        </mxCell>
        <mxCell id="6noG_g_EewDLC4juEWvF-39" value="500" style="ellipse;whiteSpace=wrap;html=1;aspect=fixed;" parent="6noG_g_EewDLC4juEWvF-38" vertex="1">
          <mxGeometry y="30" width="140" height="80" as="geometry" />
        </mxCell>
        <mxCell id="6noG_g_EewDLC4juEWvF-40" value="priority: 4" style="text;strokeColor=none;fillColor=none;align=left;verticalAlign=middle;spacingLeft=4;spacingRight=4;overflow=hidden;points=[[0,0.5],[1,0.5]];portConstraint=eastwest;rotatable=0;whiteSpace=wrap;html=1;" parent="6noG_g_EewDLC4juEWvF-38" vertex="1">
          <mxGeometry y="110" width="140" height="30" as="geometry" />
        </mxCell>
        <mxCell id="6noG_g_EewDLC4juEWvF-41" value="publishingOffset: 50" style="text;strokeColor=none;fillColor=none;align=left;verticalAlign=middle;spacingLeft=4;spacingRight=4;overflow=hidden;points=[[0,0.5],[1,0.5]];portConstraint=eastwest;rotatable=0;whiteSpace=wrap;html=1;" parent="6noG_g_EewDLC4juEWvF-38" vertex="1">
          <mxGeometry y="140" width="140" height="30" as="geometry" />
        </mxCell>
        <mxCell id="6noG_g_EewDLC4juEWvF-42" value="receivingOffset: 5000" style="text;strokeColor=none;fillColor=none;align=left;verticalAlign=middle;spacingLeft=4;spacingRight=4;overflow=hidden;points=[[0,0.5],[1,0.5]];portConstraint=eastwest;rotatable=0;whiteSpace=wrap;html=1;" parent="6noG_g_EewDLC4juEWvF-38" vertex="1">
          <mxGeometry y="170" width="140" height="30" as="geometry" />
        </mxCell>
        <mxCell id="6noG_g_EewDLC4juEWvF-43" value="streamCost: 10016" style="text;strokeColor=none;fillColor=none;align=left;verticalAlign=middle;spacingLeft=4;spacingRight=4;overflow=hidden;points=[[0,0.5],[1,0.5]];portConstraint=eastwest;rotatable=0;whiteSpace=wrap;html=1;" parent="6noG_g_EewDLC4juEWvF-38" vertex="1">
          <mxGeometry y="200" width="140" height="30" as="geometry" />
        </mxCell>
        <mxCell id="6noG_g_EewDLC4juEWvF-113" style="edgeStyle=orthogonalEdgeStyle;rounded=0;orthogonalLoop=1;jettySize=auto;html=1;entryX=0.5;entryY=0;entryDx=0;entryDy=0;" parent="1" source="6noG_g_EewDLC4juEWvF-44" target="6noG_g_EewDLC4juEWvF-26" edge="1">
          <mxGeometry relative="1" as="geometry" />
        </mxCell>
        <mxCell id="6noG_g_EewDLC4juEWvF-44" value="Subscribing Device" style="swimlane;fontStyle=0;childLayout=stackLayout;horizontal=1;startSize=30;horizontalStack=0;resizeParent=1;resizeParentMax=0;resizeLast=0;collapsible=1;marginBottom=0;whiteSpace=wrap;html=1;" parent="1" vertex="1">
          <mxGeometry x="1579.94" y="69.44" width="140" height="230" as="geometry" />
        </mxCell>
        <mxCell id="6noG_g_EewDLC4juEWvF-45" value="502" style="ellipse;whiteSpace=wrap;html=1;aspect=fixed;" parent="6noG_g_EewDLC4juEWvF-44" vertex="1">
          <mxGeometry y="30" width="140" height="80" as="geometry" />
        </mxCell>
        <mxCell id="6noG_g_EewDLC4juEWvF-46" value="priority: 4" style="text;strokeColor=none;fillColor=none;align=left;verticalAlign=middle;spacingLeft=4;spacingRight=4;overflow=hidden;points=[[0,0.5],[1,0.5]];portConstraint=eastwest;rotatable=0;whiteSpace=wrap;html=1;" parent="6noG_g_EewDLC4juEWvF-44" vertex="1">
          <mxGeometry y="110" width="140" height="30" as="geometry" />
        </mxCell>
        <mxCell id="6noG_g_EewDLC4juEWvF-49" value="publishingOffset: 100" style="text;strokeColor=none;fillColor=none;align=left;verticalAlign=middle;spacingLeft=4;spacingRight=4;overflow=hidden;points=[[0,0.5],[1,0.5]];portConstraint=eastwest;rotatable=0;whiteSpace=wrap;html=1;" parent="6noG_g_EewDLC4juEWvF-44" vertex="1">
          <mxGeometry y="140" width="140" height="30" as="geometry" />
        </mxCell>
        <mxCell id="6noG_g_EewDLC4juEWvF-48" value="receivingOffset: 5500" style="text;strokeColor=none;fillColor=none;align=left;verticalAlign=middle;spacingLeft=4;spacingRight=4;overflow=hidden;points=[[0,0.5],[1,0.5]];portConstraint=eastwest;rotatable=0;whiteSpace=wrap;html=1;" parent="6noG_g_EewDLC4juEWvF-44" vertex="1">
          <mxGeometry y="170" width="140" height="30" as="geometry" />
        </mxCell>
        <mxCell id="6noG_g_EewDLC4juEWvF-47" value="streamCost: 14295" style="text;strokeColor=none;fillColor=none;align=left;verticalAlign=middle;spacingLeft=4;spacingRight=4;overflow=hidden;points=[[0,0.5],[1,0.5]];portConstraint=eastwest;rotatable=0;whiteSpace=wrap;html=1;" parent="6noG_g_EewDLC4juEWvF-44" vertex="1">
          <mxGeometry y="200" width="140" height="30" as="geometry" />
        </mxCell>
        <mxCell id="6noG_g_EewDLC4juEWvF-52" style="edgeStyle=orthogonalEdgeStyle;rounded=0;orthogonalLoop=1;jettySize=auto;html=1;" parent="1" source="6noG_g_EewDLC4juEWvF-53" target="6noG_g_EewDLC4juEWvF-60" edge="1">
          <mxGeometry relative="1" as="geometry" />
        </mxCell>
        <mxCell id="6noG_g_EewDLC4juEWvF-53" value="D: listener /&amp;nbsp;&lt;div&gt;data subscriber&lt;/div&gt;" style="swimlane;fontStyle=0;childLayout=stackLayout;horizontal=1;startSize=30;horizontalStack=0;resizeParent=1;resizeParentMax=0;resizeLast=0;collapsible=1;marginBottom=0;whiteSpace=wrap;html=1;" parent="1" vertex="1">
          <mxGeometry x="1819.94" y="580.44" width="140" height="195" as="geometry" />
        </mxCell>
        <mxCell id="6noG_g_EewDLC4juEWvF-54" value="TSN Switch" style="strokeWidth=1;html=1;shadow=0;dashed=0;shape=mxgraph.ios.iOnOffButton;mainText=;strokeColor=#444444;fontSize=9;fontColor=#ffffff;spacingRight=14;buttonState=on;sketch=0;" parent="6noG_g_EewDLC4juEWvF-53" vertex="1">
          <mxGeometry y="30" width="140" height="15" as="geometry" />
        </mxCell>
        <mxCell id="6noG_g_EewDLC4juEWvF-55" value="cost: 0" style="text;strokeColor=none;fillColor=none;align=left;verticalAlign=middle;spacingLeft=4;spacingRight=4;overflow=hidden;points=[[0,0.5],[1,0.5]];portConstraint=eastwest;rotatable=0;whiteSpace=wrap;html=1;" parent="6noG_g_EewDLC4juEWvF-53" vertex="1">
          <mxGeometry y="45" width="140" height="30" as="geometry" />
        </mxCell>
        <mxCell id="6noG_g_EewDLC4juEWvF-56" value="path" style="text;strokeColor=none;fillColor=none;align=left;verticalAlign=middle;spacingLeft=4;spacingRight=4;overflow=hidden;points=[[0,0.5],[1,0.5]];portConstraint=eastwest;rotatable=0;whiteSpace=wrap;html=1;" parent="6noG_g_EewDLC4juEWvF-53" vertex="1">
          <mxGeometry y="75" width="140" height="30" as="geometry" />
        </mxCell>
        <mxCell id="6noG_g_EewDLC4juEWvF-57" value="egressCost: 11" style="text;strokeColor=none;fillColor=none;align=left;verticalAlign=middle;spacingLeft=4;spacingRight=4;overflow=hidden;points=[[0,0.5],[1,0.5]];portConstraint=eastwest;rotatable=0;whiteSpace=wrap;html=1;" parent="6noG_g_EewDLC4juEWvF-53" vertex="1">
          <mxGeometry y="105" width="140" height="30" as="geometry" />
        </mxCell>
        <mxCell id="6noG_g_EewDLC4juEWvF-58" value="ingressCost: 101" style="text;strokeColor=none;fillColor=none;align=left;verticalAlign=middle;spacingLeft=4;spacingRight=4;overflow=hidden;points=[[0,0.5],[1,0.5]];portConstraint=eastwest;rotatable=0;whiteSpace=wrap;html=1;" parent="6noG_g_EewDLC4juEWvF-53" vertex="1">
          <mxGeometry y="135" width="140" height="30" as="geometry" />
        </mxCell>
        <mxCell id="6noG_g_EewDLC4juEWvF-59" value="residenceCost: 1001" style="text;strokeColor=none;fillColor=none;align=left;verticalAlign=middle;spacingLeft=4;spacingRight=4;overflow=hidden;points=[[0,0.5],[1,0.5]];portConstraint=eastwest;rotatable=0;whiteSpace=wrap;html=1;" parent="6noG_g_EewDLC4juEWvF-53" vertex="1">
          <mxGeometry y="165" width="140" height="30" as="geometry" />
        </mxCell>
        <mxCell id="6noG_g_EewDLC4juEWvF-60" value="Subscribing Device" style="swimlane;fontStyle=0;childLayout=stackLayout;horizontal=1;startSize=30;horizontalStack=0;resizeParent=1;resizeParentMax=0;resizeLast=0;collapsible=1;marginBottom=0;whiteSpace=wrap;html=1;" parent="1" vertex="1">
          <mxGeometry x="1819.94" y="299.44" width="140" height="230" as="geometry" />
        </mxCell>
        <mxCell id="6noG_g_EewDLC4juEWvF-61" value="503" style="ellipse;whiteSpace=wrap;html=1;aspect=fixed;" parent="6noG_g_EewDLC4juEWvF-60" vertex="1">
          <mxGeometry y="30" width="140" height="80" as="geometry" />
        </mxCell>
        <mxCell id="6noG_g_EewDLC4juEWvF-62" value="priority: 5" style="text;strokeColor=none;fillColor=none;align=left;verticalAlign=middle;spacingLeft=4;spacingRight=4;overflow=hidden;points=[[0,0.5],[1,0.5]];portConstraint=eastwest;rotatable=0;whiteSpace=wrap;html=1;" parent="6noG_g_EewDLC4juEWvF-60" vertex="1">
          <mxGeometry y="110" width="140" height="30" as="geometry" />
        </mxCell>
        <mxCell id="6noG_g_EewDLC4juEWvF-65" value="publishingOffset: 100" style="text;strokeColor=none;fillColor=none;align=left;verticalAlign=middle;spacingLeft=4;spacingRight=4;overflow=hidden;points=[[0,0.5],[1,0.5]];portConstraint=eastwest;rotatable=0;whiteSpace=wrap;html=1;" parent="6noG_g_EewDLC4juEWvF-60" vertex="1">
          <mxGeometry y="140" width="140" height="30" as="geometry" />
        </mxCell>
        <mxCell id="6noG_g_EewDLC4juEWvF-64" value="receivingOffset: 7000" style="text;strokeColor=none;fillColor=none;align=left;verticalAlign=middle;spacingLeft=4;spacingRight=4;overflow=hidden;points=[[0,0.5],[1,0.5]];portConstraint=eastwest;rotatable=0;whiteSpace=wrap;html=1;" parent="6noG_g_EewDLC4juEWvF-60" vertex="1">
          <mxGeometry y="170" width="140" height="30" as="geometry" />
        </mxCell>
        <mxCell id="6noG_g_EewDLC4juEWvF-63" value="streamCost: 18979" style="text;strokeColor=none;fillColor=none;align=left;verticalAlign=middle;spacingLeft=4;spacingRight=4;overflow=hidden;points=[[0,0.5],[1,0.5]];portConstraint=eastwest;rotatable=0;whiteSpace=wrap;html=1;" parent="6noG_g_EewDLC4juEWvF-60" vertex="1">
          <mxGeometry y="200" width="140" height="30" as="geometry" />
        </mxCell>
        <mxCell id="6noG_g_EewDLC4juEWvF-67" value="Subscriber on Device B" style="swimlane;fontStyle=0;childLayout=stackLayout;horizontal=1;startSize=30;horizontalStack=0;resizeParent=1;resizeParentMax=0;resizeLast=0;collapsible=1;marginBottom=0;whiteSpace=wrap;html=1;" parent="1" vertex="1">
          <mxGeometry x="1339.94" y="299.44" width="140" height="230" as="geometry" />
        </mxCell>
        <mxCell id="6noG_g_EewDLC4juEWvF-68" value="501" style="ellipse;whiteSpace=wrap;html=1;aspect=fixed;" parent="6noG_g_EewDLC4juEWvF-67" vertex="1">
          <mxGeometry y="30" width="140" height="80" as="geometry" />
        </mxCell>
        <mxCell id="6noG_g_EewDLC4juEWvF-69" value="priority: 4" style="text;strokeColor=none;fillColor=none;align=left;verticalAlign=middle;spacingLeft=4;spacingRight=4;overflow=hidden;points=[[0,0.5],[1,0.5]];portConstraint=eastwest;rotatable=0;whiteSpace=wrap;html=1;" parent="6noG_g_EewDLC4juEWvF-67" vertex="1">
          <mxGeometry y="110" width="140" height="30" as="geometry" />
        </mxCell>
        <mxCell id="6noG_g_EewDLC4juEWvF-70" value="publishingOffset: 100" style="text;strokeColor=none;fillColor=none;align=left;verticalAlign=middle;spacingLeft=4;spacingRight=4;overflow=hidden;points=[[0,0.5],[1,0.5]];portConstraint=eastwest;rotatable=0;whiteSpace=wrap;html=1;" parent="6noG_g_EewDLC4juEWvF-67" vertex="1">
          <mxGeometry y="140" width="140" height="30" as="geometry" />
        </mxCell>
        <mxCell id="6noG_g_EewDLC4juEWvF-71" value="receivingOffset: 5500" style="text;strokeColor=none;fillColor=none;align=left;verticalAlign=middle;spacingLeft=4;spacingRight=4;overflow=hidden;points=[[0,0.5],[1,0.5]];portConstraint=eastwest;rotatable=0;whiteSpace=wrap;html=1;" parent="6noG_g_EewDLC4juEWvF-67" vertex="1">
          <mxGeometry y="170" width="140" height="30" as="geometry" />
        </mxCell>
        <mxCell id="6noG_g_EewDLC4juEWvF-72" value="streamCost: 15414" style="text;strokeColor=none;fillColor=none;align=left;verticalAlign=middle;spacingLeft=4;spacingRight=4;overflow=hidden;points=[[0,0.5],[1,0.5]];portConstraint=eastwest;rotatable=0;whiteSpace=wrap;html=1;" parent="6noG_g_EewDLC4juEWvF-67" vertex="1">
          <mxGeometry y="200" width="140" height="30" as="geometry" />
        </mxCell>
        <mxCell id="6noG_g_EewDLC4juEWvF-75" style="edgeStyle=orthogonalEdgeStyle;rounded=0;orthogonalLoop=1;jettySize=auto;html=1;exitX=1;exitY=0.5;exitDx=0;exitDy=0;entryX=0;entryY=0.5;entryDx=0;entryDy=0;" parent="1" source="6noG_g_EewDLC4juEWvF-56" target="6noG_g_EewDLC4juEWvF-14" edge="1">
          <mxGeometry relative="1" as="geometry">
            <mxPoint x="1099.94" y="875.44" as="sourcePoint" />
            <mxPoint x="1779.94" y="960.44" as="targetPoint" />
            <Array as="points">
              <mxPoint x="1989.94" y="670.44" />
              <mxPoint x="1989.94" y="830.44" />
              <mxPoint x="1079.94" y="830.44" />
              <mxPoint x="1079.94" y="670.44" />
            </Array>
          </mxGeometry>
        </mxCell>
        <mxCell id="6noG_g_EewDLC4juEWvF-76" style="edgeStyle=orthogonalEdgeStyle;rounded=0;orthogonalLoop=1;jettySize=auto;html=1;exitX=1;exitY=0.5;exitDx=0;exitDy=0;entryX=0;entryY=0.5;entryDx=0;entryDy=0;" parent="1" source="6noG_g_EewDLC4juEWvF-29" target="6noG_g_EewDLC4juEWvF-56" edge="1">
          <mxGeometry relative="1" as="geometry">
            <mxPoint x="1769.94" y="640.44" as="targetPoint" />
          </mxGeometry>
        </mxCell>
        <mxCell id="6noG_g_EewDLC4juEWvF-77" value="Stream 500 A" style="text;html=1;align=center;verticalAlign=middle;resizable=0;points=[];autosize=1;strokeColor=none;fillColor=none;" parent="1" vertex="1">
          <mxGeometry x="216" y="298" width="100" height="30" as="geometry" />
        </mxCell>
        <mxCell id="6noG_g_EewDLC4juEWvF-78" value="Stream 502 C" style="text;html=1;align=center;verticalAlign=middle;resizable=0;points=[];autosize=1;strokeColor=none;fillColor=none;" parent="1" vertex="1">
          <mxGeometry x="696" y="299" width="100" height="30" as="geometry" />
        </mxCell>
        <mxCell id="6noG_g_EewDLC4juEWvF-85" value="" style="swimlane;startSize=0;" parent="1" vertex="1">
          <mxGeometry x="440" y="120" width="140" height="110" as="geometry" />
        </mxCell>
        <mxCell id="6noG_g_EewDLC4juEWvF-81" value="priority: 4" style="text;strokeColor=none;fillColor=none;align=left;verticalAlign=middle;spacingLeft=4;spacingRight=4;overflow=hidden;points=[[0,0.5],[1,0.5]];portConstraint=eastwest;rotatable=0;whiteSpace=wrap;html=1;" parent="6noG_g_EewDLC4juEWvF-85" vertex="1">
          <mxGeometry y="15.5" width="140" height="30" as="geometry" />
        </mxCell>
        <mxCell id="6noG_g_EewDLC4juEWvF-82" value="publishingOffset: 75" style="text;strokeColor=none;fillColor=none;align=left;verticalAlign=middle;spacingLeft=4;spacingRight=4;overflow=hidden;points=[[0,0.5],[1,0.5]];portConstraint=eastwest;rotatable=0;whiteSpace=wrap;html=1;" parent="6noG_g_EewDLC4juEWvF-85" vertex="1">
          <mxGeometry y="45.5" width="140" height="30" as="geometry" />
        </mxCell>
        <mxCell id="6noG_g_EewDLC4juEWvF-83" value="receivingOffset: 7000" style="text;strokeColor=none;fillColor=none;align=left;verticalAlign=middle;spacingLeft=4;spacingRight=4;overflow=hidden;points=[[0,0.5],[1,0.5]];portConstraint=eastwest;rotatable=0;whiteSpace=wrap;html=1;" parent="6noG_g_EewDLC4juEWvF-85" vertex="1">
          <mxGeometry y="75.5" width="140" height="30" as="geometry" />
        </mxCell>
        <mxCell id="6noG_g_EewDLC4juEWvF-87" style="edgeStyle=orthogonalEdgeStyle;rounded=0;orthogonalLoop=1;jettySize=auto;html=1;exitX=1;exitY=0.5;exitDx=0;exitDy=0;entryX=0;entryY=0.5;entryDx=0;entryDy=0;" parent="1" source="6noG_g_EewDLC4juEWvF-39" target="6noG_g_EewDLC4juEWvF-68" edge="1">
          <mxGeometry relative="1" as="geometry">
            <Array as="points">
              <mxPoint x="1300" y="139.5" />
              <mxPoint x="1300" y="369.5" />
            </Array>
          </mxGeometry>
        </mxCell>
        <mxCell id="6noG_g_EewDLC4juEWvF-94" value="link 3" style="text;html=1;align=center;verticalAlign=middle;resizable=0;points=[];autosize=1;strokeColor=none;fillColor=none;" parent="1" vertex="1">
          <mxGeometry x="1749.94" y="640.44" width="50" height="30" as="geometry" />
        </mxCell>
        <mxCell id="6noG_g_EewDLC4juEWvF-95" value="link 4" style="text;html=1;align=center;verticalAlign=middle;resizable=0;points=[];autosize=1;strokeColor=none;fillColor=none;" parent="1" vertex="1">
          <mxGeometry x="1509.94" y="810.44" width="50" height="30" as="geometry" />
        </mxCell>
        <mxCell id="6noG_g_EewDLC4juEWvF-96" value="Stream 500 A" style="text;html=1;align=center;verticalAlign=middle;resizable=0;points=[];autosize=1;strokeColor=none;fillColor=none;" parent="1" vertex="1">
          <mxGeometry x="1115.94" y="529.44" width="100" height="30" as="geometry" />
        </mxCell>
        <mxCell id="6noG_g_EewDLC4juEWvF-97" value="Stream 502 C" style="text;html=1;align=center;verticalAlign=middle;resizable=0;points=[];autosize=1;strokeColor=none;fillColor=none;" parent="1" vertex="1">
          <mxGeometry x="1595.94" y="530.44" width="100" height="30" as="geometry" />
        </mxCell>
        <mxCell id="6noG_g_EewDLC4juEWvF-98" value="Stream 501 B" style="text;html=1;align=center;verticalAlign=middle;resizable=0;points=[];autosize=1;strokeColor=none;fillColor=none;" parent="1" vertex="1">
          <mxGeometry x="1355.94" y="530.44" width="100" height="30" as="geometry" />
        </mxCell>
        <mxCell id="6noG_g_EewDLC4juEWvF-99" value="Stream 503 D" style="text;html=1;align=center;verticalAlign=middle;resizable=0;points=[];autosize=1;strokeColor=none;fillColor=none;" parent="1" vertex="1">
          <mxGeometry x="1835.94" y="531.44" width="100" height="30" as="geometry" />
        </mxCell>
        <mxCell id="6noG_g_EewDLC4juEWvF-110" value="" style="html=1;verticalLabelPosition=bottom;align=center;labelBackgroundColor=#ffffff;verticalAlign=top;strokeWidth=2;strokeColor=#0080F0;shadow=0;dashed=0;shape=mxgraph.ios7.icons.controls;" parent="1" vertex="1">
          <mxGeometry x="1269.94" y="680.44" width="40" height="40" as="geometry" />
        </mxCell>
        <mxCell id="6noG_g_EewDLC4juEWvF-111" value="" style="html=1;verticalLabelPosition=bottom;align=center;labelBackgroundColor=#ffffff;verticalAlign=top;strokeWidth=2;strokeColor=#0080F0;shadow=0;dashed=0;shape=mxgraph.ios7.icons.controls;" parent="1" vertex="1">
          <mxGeometry x="1514.94" y="680.44" width="40" height="40" as="geometry" />
        </mxCell>
        <mxCell id="6noG_g_EewDLC4juEWvF-112" value="" style="html=1;verticalLabelPosition=bottom;align=center;labelBackgroundColor=#ffffff;verticalAlign=top;strokeWidth=2;strokeColor=#0080F0;shadow=0;dashed=0;shape=mxgraph.ios7.icons.controls;" parent="1" vertex="1">
          <mxGeometry x="1754.94" y="680.44" width="40" height="40" as="geometry" />
        </mxCell>
        <mxCell id="6noG_g_EewDLC4juEWvF-116" value="PubSub 1" style="html=1;shadow=0;dashed=0;align=center;verticalAlign=middle;shape=mxgraph.arrows2.twoWayArrow;dy=0.65;dx=22;" parent="1" vertex="1">
          <mxGeometry x="1240" y="110.5" width="340" height="60" as="geometry" />
        </mxCell>
        <mxCell id="6noG_g_EewDLC4juEWvF-122" value="priority: 3" style="text;strokeColor=none;fillColor=none;align=left;verticalAlign=middle;spacingLeft=4;spacingRight=4;overflow=hidden;points=[[0,0.5],[1,0.5]];portConstraint=eastwest;rotatable=0;whiteSpace=wrap;html=1;" parent="1" vertex="1">
          <mxGeometry x="1200" y="346" width="140" height="30" as="geometry" />
        </mxCell>
        <mxCell id="6noG_g_EewDLC4juEWvF-123" value="publishingOffset: 50" style="text;strokeColor=none;fillColor=none;align=left;verticalAlign=middle;spacingLeft=4;spacingRight=4;overflow=hidden;points=[[0,0.5],[1,0.5]];portConstraint=eastwest;rotatable=0;whiteSpace=wrap;html=1;" parent="1" vertex="1">
          <mxGeometry x="1200" y="376" width="140" height="30" as="geometry" />
        </mxCell>
        <mxCell id="6noG_g_EewDLC4juEWvF-124" value="receivingOffset: 5500" style="text;strokeColor=none;fillColor=none;align=left;verticalAlign=middle;spacingLeft=4;spacingRight=4;overflow=hidden;points=[[0,0.5],[1,0.5]];portConstraint=eastwest;rotatable=0;whiteSpace=wrap;html=1;" parent="1" vertex="1">
          <mxGeometry x="1200" y="406" width="140" height="30" as="geometry" />
        </mxCell>
        <mxCell id="6noG_g_EewDLC4juEWvF-125" value="priority: 4" style="text;strokeColor=none;fillColor=none;align=left;verticalAlign=middle;spacingLeft=4;spacingRight=4;overflow=hidden;points=[[0,0.5],[1,0.5]];portConstraint=eastwest;rotatable=0;whiteSpace=wrap;html=1;" parent="1" vertex="1">
          <mxGeometry x="1340" y="40" width="140" height="30" as="geometry" />
        </mxCell>
        <mxCell id="6noG_g_EewDLC4juEWvF-126" value="publishingOffset: 75" style="text;strokeColor=none;fillColor=none;align=left;verticalAlign=middle;spacingLeft=4;spacingRight=4;overflow=hidden;points=[[0,0.5],[1,0.5]];portConstraint=eastwest;rotatable=0;whiteSpace=wrap;html=1;" parent="1" vertex="1">
          <mxGeometry x="1340" y="70" width="140" height="30" as="geometry" />
        </mxCell>
        <mxCell id="6noG_g_EewDLC4juEWvF-127" value="receivingOffset: 7000" style="text;strokeColor=none;fillColor=none;align=left;verticalAlign=middle;spacingLeft=4;spacingRight=4;overflow=hidden;points=[[0,0.5],[1,0.5]];portConstraint=eastwest;rotatable=0;whiteSpace=wrap;html=1;" parent="1" vertex="1">
          <mxGeometry x="1340" y="100" width="140" height="30" as="geometry" />
        </mxCell>
      </root>
    </mxGraphModel>
  </diagram>
</mxfile>
